<mxfile host="app.diagrams.net" modified="2023-08-10T14:33:33.324Z" agent="Mozilla/5.0 (Windows NT 10.0; Win64; x64) AppleWebKit/537.36 (KHTML, like Gecko) Chrome/115.0.0.0 Safari/537.36" etag="4JlBVSn0PgjFJ6bOcUy7" version="21.6.8" type="device" pages="6">
  <diagram id="h3gr92YJiF0cDJSz2KRH" name="Exercício 1">
    <mxGraphModel dx="880" dy="446" grid="1" gridSize="10" guides="1" tooltips="1" connect="1" arrows="1" fold="1" page="1" pageScale="1" pageWidth="827" pageHeight="1169" math="0" shadow="0">
      <root>
        <mxCell id="0" />
        <mxCell id="1" parent="0" />
        <mxCell id="A3KpcemZ_ozbWx5bIQLD-1" value="" style="edgeStyle=orthogonalEdgeStyle;rounded=0;orthogonalLoop=1;jettySize=auto;html=1;" parent="1" source="A3KpcemZ_ozbWx5bIQLD-2" target="A3KpcemZ_ozbWx5bIQLD-4" edge="1">
          <mxGeometry relative="1" as="geometry" />
        </mxCell>
        <mxCell id="A3KpcemZ_ozbWx5bIQLD-2" value="LER A PRIMEIRA NOTA" style="rounded=1;fillColor=#e6d0de;gradientColor=#d5739d;strokeColor=#996185;fontFamily=Lucida Console;labelBackgroundColor=none;labelBorderColor=none;whiteSpace=wrap;html=1;fontStyle=1" parent="1" vertex="1">
          <mxGeometry x="120" y="110" width="200" height="90" as="geometry" />
        </mxCell>
        <mxCell id="A3KpcemZ_ozbWx5bIQLD-3" value="" style="edgeStyle=orthogonalEdgeStyle;rounded=0;orthogonalLoop=1;jettySize=auto;html=1;" parent="1" source="A3KpcemZ_ozbWx5bIQLD-4" target="A3KpcemZ_ozbWx5bIQLD-6" edge="1">
          <mxGeometry relative="1" as="geometry" />
        </mxCell>
        <mxCell id="A3KpcemZ_ozbWx5bIQLD-4" value="LER A SEGUNDA NOTA" style="rounded=1;whiteSpace=wrap;html=1;fillColor=#e6d0de;gradientColor=#d5739d;strokeColor=#996185;fontFamily=Lucida Console;fontStyle=1" parent="1" vertex="1">
          <mxGeometry x="520" y="110" width="200" height="90" as="geometry" />
        </mxCell>
        <mxCell id="A3KpcemZ_ozbWx5bIQLD-5" value="" style="edgeStyle=orthogonalEdgeStyle;rounded=0;orthogonalLoop=1;jettySize=auto;html=1;" parent="1" source="A3KpcemZ_ozbWx5bIQLD-6" target="A3KpcemZ_ozbWx5bIQLD-8" edge="1">
          <mxGeometry relative="1" as="geometry" />
        </mxCell>
        <mxCell id="A3KpcemZ_ozbWx5bIQLD-6" value="SOMAR NOTAS E DIVIDIR" style="whiteSpace=wrap;html=1;rounded=1;fillColor=#e6d0de;gradientColor=#d5739d;strokeColor=#996185;fontFamily=Lucida Console;fontStyle=1" parent="1" vertex="1">
          <mxGeometry x="520" y="270" width="200" height="90" as="geometry" />
        </mxCell>
        <mxCell id="A3KpcemZ_ozbWx5bIQLD-7" value="" style="edgeStyle=orthogonalEdgeStyle;rounded=0;orthogonalLoop=1;jettySize=auto;html=1;" parent="1" source="A3KpcemZ_ozbWx5bIQLD-8" target="A3KpcemZ_ozbWx5bIQLD-12" edge="1">
          <mxGeometry relative="1" as="geometry" />
        </mxCell>
        <mxCell id="A3KpcemZ_ozbWx5bIQLD-8" value="EXIBIR NOTA&lt;br&gt;" style="whiteSpace=wrap;html=1;rounded=1;fillColor=#e6d0de;gradientColor=#d5739d;strokeColor=#996185;fontStyle=1;fontFamily=Lucida Console;" parent="1" vertex="1">
          <mxGeometry x="120" y="270" width="200" height="90" as="geometry" />
        </mxCell>
        <mxCell id="A3KpcemZ_ozbWx5bIQLD-9" value="" style="edgeStyle=orthogonalEdgeStyle;rounded=0;orthogonalLoop=1;jettySize=auto;html=1;" parent="1" source="A3KpcemZ_ozbWx5bIQLD-10" target="A3KpcemZ_ozbWx5bIQLD-2" edge="1">
          <mxGeometry relative="1" as="geometry" />
        </mxCell>
        <mxCell id="A3KpcemZ_ozbWx5bIQLD-10" value="" style="ellipse;whiteSpace=wrap;html=1;fillColor=#60a917;strokeColor=#2D7600;fontColor=#ffffff;" parent="1" vertex="1">
          <mxGeometry x="205" y="20" width="30" height="30" as="geometry" />
        </mxCell>
        <mxCell id="A3KpcemZ_ozbWx5bIQLD-12" value="" style="ellipse;whiteSpace=wrap;html=1;fillColor=#fa6800;strokeColor=#C73500;fontColor=#000000;" parent="1" vertex="1">
          <mxGeometry x="205" y="420" width="30" height="30" as="geometry" />
        </mxCell>
      </root>
    </mxGraphModel>
  </diagram>
  <diagram name="Exercício 2" id="pU1vUv0fNvhiDsVcPiVi">
    <mxGraphModel dx="880" dy="446" grid="1" gridSize="10" guides="1" tooltips="1" connect="1" arrows="1" fold="1" page="1" pageScale="1" pageWidth="827" pageHeight="1169" background="none" math="0" shadow="0">
      <root>
        <mxCell id="0" />
        <mxCell id="1" parent="0" />
        <mxCell id="hTFNomgR_6zAOllPz_Ov-11" style="edgeStyle=orthogonalEdgeStyle;rounded=0;orthogonalLoop=1;jettySize=auto;html=1;entryX=1;entryY=0.5;entryDx=0;entryDy=0;" parent="1" source="hTFNomgR_6zAOllPz_Ov-8" target="hTFNomgR_6zAOllPz_Ov-4" edge="1">
          <mxGeometry relative="1" as="geometry" />
        </mxCell>
        <mxCell id="hTFNomgR_6zAOllPz_Ov-8" value="SOMAR E DIVIDIR AS NOTAS" style="rounded=1;whiteSpace=wrap;html=1;fillColor=#e6d0de;gradientColor=#d5739d;strokeColor=#996185;fontFamily=Lucida Console;fontStyle=1" parent="1" vertex="1">
          <mxGeometry x="560" y="290" width="200" height="90" as="geometry" />
        </mxCell>
        <mxCell id="4GfOPL2QZJecyEdDvLWF-4" value="" style="edgeStyle=orthogonalEdgeStyle;rounded=0;orthogonalLoop=1;jettySize=auto;html=1;" parent="1" source="4GfOPL2QZJecyEdDvLWF-2" target="4GfOPL2QZJecyEdDvLWF-3" edge="1">
          <mxGeometry relative="1" as="geometry" />
        </mxCell>
        <mxCell id="4GfOPL2QZJecyEdDvLWF-2" value="LER A PRIMEIRA NOTA" style="rounded=1;fillColor=#e6d0de;gradientColor=#d5739d;strokeColor=#996185;fontFamily=Lucida Console;labelBackgroundColor=none;labelBorderColor=none;whiteSpace=wrap;html=1;fontStyle=1" parent="1" vertex="1">
          <mxGeometry x="70" y="120" width="200" height="90" as="geometry" />
        </mxCell>
        <mxCell id="hTFNomgR_6zAOllPz_Ov-10" style="edgeStyle=orthogonalEdgeStyle;rounded=0;orthogonalLoop=1;jettySize=auto;html=1;entryX=0.5;entryY=0;entryDx=0;entryDy=0;" parent="1" source="4GfOPL2QZJecyEdDvLWF-3" target="hTFNomgR_6zAOllPz_Ov-8" edge="1">
          <mxGeometry relative="1" as="geometry">
            <mxPoint x="660" y="280" as="targetPoint" />
          </mxGeometry>
        </mxCell>
        <mxCell id="4GfOPL2QZJecyEdDvLWF-3" value="LER A SEGUNDA NOTA" style="rounded=1;whiteSpace=wrap;html=1;fillColor=#e6d0de;gradientColor=#d5739d;strokeColor=#996185;fontFamily=Lucida Console;fontStyle=1" parent="1" vertex="1">
          <mxGeometry x="560" y="120" width="200" height="90" as="geometry" />
        </mxCell>
        <mxCell id="4GfOPL2QZJecyEdDvLWF-13" value="" style="edgeStyle=orthogonalEdgeStyle;rounded=0;orthogonalLoop=1;jettySize=auto;html=1;" parent="1" source="4GfOPL2QZJecyEdDvLWF-7" target="4GfOPL2QZJecyEdDvLWF-11" edge="1">
          <mxGeometry relative="1" as="geometry" />
        </mxCell>
        <mxCell id="4GfOPL2QZJecyEdDvLWF-7" value="Exibir a frase &quot;#partiuestágio&quot;" style="whiteSpace=wrap;html=1;rounded=1;fillColor=#e6d0de;gradientColor=#d5739d;strokeColor=#996185;fontStyle=1;fontFamily=Lucida Console;" parent="1" vertex="1">
          <mxGeometry x="70" y="290" width="200" height="90" as="geometry" />
        </mxCell>
        <mxCell id="4GfOPL2QZJecyEdDvLWF-10" value="" style="edgeStyle=orthogonalEdgeStyle;rounded=0;orthogonalLoop=1;jettySize=auto;html=1;" parent="1" source="4GfOPL2QZJecyEdDvLWF-9" target="4GfOPL2QZJecyEdDvLWF-2" edge="1">
          <mxGeometry relative="1" as="geometry" />
        </mxCell>
        <mxCell id="4GfOPL2QZJecyEdDvLWF-9" value="" style="ellipse;whiteSpace=wrap;html=1;fillColor=#60a917;strokeColor=#2D7600;fontColor=#ffffff;" parent="1" vertex="1">
          <mxGeometry x="155" y="20" width="30" height="30" as="geometry" />
        </mxCell>
        <mxCell id="4GfOPL2QZJecyEdDvLWF-11" value="" style="ellipse;whiteSpace=wrap;html=1;fillColor=#fa6800;strokeColor=#C73500;fontColor=#000000;" parent="1" vertex="1">
          <mxGeometry x="155" y="490" width="30" height="30" as="geometry" />
        </mxCell>
        <mxCell id="IrXOv5Kzgehit0_0d3e5-1" value="&lt;font style=&quot;font-size: 8px;&quot; face=&quot;Lucida Console&quot;&gt;Caso a média seja &lt;br style=&quot;font-size: 8px;&quot;&gt;maior ou igual a 5&lt;/font&gt;" style="text;html=1;align=center;verticalAlign=middle;resizable=0;points=[];autosize=1;strokeColor=none;fillColor=none;fontStyle=1;fontSize=8;" parent="1" vertex="1">
          <mxGeometry x="263" y="347" width="130" height="30" as="geometry" />
        </mxCell>
        <mxCell id="hTFNomgR_6zAOllPz_Ov-2" style="edgeStyle=orthogonalEdgeStyle;rounded=0;orthogonalLoop=1;jettySize=auto;html=1;entryX=1;entryY=0.5;entryDx=0;entryDy=0;" parent="1" source="IrXOv5Kzgehit0_0d3e5-2" target="4GfOPL2QZJecyEdDvLWF-11" edge="1">
          <mxGeometry relative="1" as="geometry" />
        </mxCell>
        <mxCell id="IrXOv5Kzgehit0_0d3e5-2" value="Exibir a frase&amp;nbsp;&lt;br&gt;&quot;#partiutentardenovo&quot;" style="whiteSpace=wrap;html=1;rounded=1;fillColor=#e6d0de;gradientColor=#d5739d;strokeColor=#996185;fontFamily=Lucida Console;fontStyle=1" parent="1" vertex="1">
          <mxGeometry x="314" y="460" width="200" height="90" as="geometry" />
        </mxCell>
        <mxCell id="hTFNomgR_6zAOllPz_Ov-1" value="&lt;div style=&quot;direction: rtl; font-size: 8px;&quot;&gt;&lt;span style=&quot;font-size: 8px; font-family: &amp;quot;Lucida Console&amp;quot;; background-color: initial;&quot;&gt;Caso a média seja&amp;nbsp;&lt;/span&gt;&lt;/div&gt;&lt;div style=&quot;direction: rtl; font-size: 8px;&quot;&gt;&lt;span style=&quot;font-size: 8px; font-family: &amp;quot;Lucida Console&amp;quot;; background-color: initial;&quot;&gt;menor&amp;nbsp;&lt;/span&gt;&lt;span style=&quot;background-color: initial; font-size: 8px; font-family: &amp;quot;Lucida Console&amp;quot;;&quot;&gt;que 5&lt;/span&gt;&lt;/div&gt;" style="text;html=1;align=center;verticalAlign=middle;resizable=0;points=[];autosize=1;strokeColor=none;fillColor=none;fontStyle=1;fontSize=8;" parent="1" vertex="1">
          <mxGeometry x="414" y="401" width="130" height="30" as="geometry" />
        </mxCell>
        <mxCell id="hTFNomgR_6zAOllPz_Ov-5" value="" style="edgeStyle=orthogonalEdgeStyle;rounded=0;orthogonalLoop=1;jettySize=auto;html=1;" parent="1" source="hTFNomgR_6zAOllPz_Ov-4" target="IrXOv5Kzgehit0_0d3e5-2" edge="1">
          <mxGeometry relative="1" as="geometry" />
        </mxCell>
        <mxCell id="hTFNomgR_6zAOllPz_Ov-6" style="edgeStyle=orthogonalEdgeStyle;rounded=0;orthogonalLoop=1;jettySize=auto;html=1;" parent="1" source="hTFNomgR_6zAOllPz_Ov-4" target="4GfOPL2QZJecyEdDvLWF-7" edge="1">
          <mxGeometry relative="1" as="geometry" />
        </mxCell>
        <mxCell id="hTFNomgR_6zAOllPz_Ov-4" value="EXIBIR RESULTADO" style="rhombus;whiteSpace=wrap;html=1;fontStyle=1;fontFamily=Lucida Console;" parent="1" vertex="1">
          <mxGeometry x="364" y="285" width="100" height="100" as="geometry" />
        </mxCell>
      </root>
    </mxGraphModel>
  </diagram>
  <diagram id="u2q2S1Q21XpfYqFpHzEA" name="Exercício 3">
    <mxGraphModel dx="880" dy="446" grid="1" gridSize="10" guides="1" tooltips="1" connect="1" arrows="1" fold="1" page="1" pageScale="1" pageWidth="827" pageHeight="1169" math="0" shadow="0">
      <root>
        <mxCell id="0" />
        <mxCell id="1" parent="0" />
        <mxCell id="0sXFW3jJvVCvKRfFhtP7-27" style="edgeStyle=orthogonalEdgeStyle;rounded=0;orthogonalLoop=1;jettySize=auto;html=1;entryX=0.55;entryY=0.138;entryDx=0;entryDy=0;entryPerimeter=0;" parent="1" source="0sXFW3jJvVCvKRfFhtP7-24" target="0sXFW3jJvVCvKRfFhtP7-15" edge="1">
          <mxGeometry relative="1" as="geometry" />
        </mxCell>
        <mxCell id="0sXFW3jJvVCvKRfFhtP7-23" value="" style="rounded=1;whiteSpace=wrap;html=1;" parent="1" vertex="1">
          <mxGeometry x="590" y="515" width="174" height="40" as="geometry" />
        </mxCell>
        <mxCell id="0sXFW3jJvVCvKRfFhtP7-10" value="" style="rounded=1;whiteSpace=wrap;html=1;" parent="1" vertex="1">
          <mxGeometry x="435" y="440" width="174" height="60" as="geometry" />
        </mxCell>
        <mxCell id="Ahw97GIB54ejlvHSfWV0-3" value="" style="edgeStyle=orthogonalEdgeStyle;rounded=0;orthogonalLoop=1;jettySize=auto;html=1;" parent="1" source="Ahw97GIB54ejlvHSfWV0-4" target="Ahw97GIB54ejlvHSfWV0-6" edge="1">
          <mxGeometry relative="1" as="geometry" />
        </mxCell>
        <mxCell id="Ahw97GIB54ejlvHSfWV0-4" value="LER O SEXO" style="rounded=1;fillColor=#dae8fc;strokeColor=#6c8ebf;fontFamily=Lucida Console;labelBackgroundColor=none;labelBorderColor=none;whiteSpace=wrap;html=1;fontStyle=1" parent="1" vertex="1">
          <mxGeometry x="70" y="120" width="200" height="90" as="geometry" />
        </mxCell>
        <mxCell id="-WLtqhEO8Z-k--BGQzyH-10" style="edgeStyle=orthogonalEdgeStyle;rounded=0;orthogonalLoop=1;jettySize=auto;html=1;entryX=0.5;entryY=0;entryDx=0;entryDy=0;" parent="1" source="Ahw97GIB54ejlvHSfWV0-6" target="-WLtqhEO8Z-k--BGQzyH-2" edge="1">
          <mxGeometry relative="1" as="geometry" />
        </mxCell>
        <mxCell id="Ahw97GIB54ejlvHSfWV0-6" value="LER A IDADE" style="rounded=1;whiteSpace=wrap;html=1;fillColor=#dae8fc;strokeColor=#6c8ebf;fontFamily=Lucida Console;fontStyle=1;" parent="1" vertex="1">
          <mxGeometry x="314" y="120" width="200" height="90" as="geometry" />
        </mxCell>
        <mxCell id="Ahw97GIB54ejlvHSfWV0-9" value="" style="edgeStyle=orthogonalEdgeStyle;rounded=0;orthogonalLoop=1;jettySize=auto;html=1;" parent="1" target="Ahw97GIB54ejlvHSfWV0-4" edge="1">
          <mxGeometry relative="1" as="geometry">
            <mxPoint x="170" y="50" as="sourcePoint" />
          </mxGeometry>
        </mxCell>
        <mxCell id="-WLtqhEO8Z-k--BGQzyH-1" value="" style="ellipse;whiteSpace=wrap;html=1;fillColor=#60a917;strokeColor=#2D7600;fontColor=#ffffff;" parent="1" vertex="1">
          <mxGeometry x="155" y="20" width="30" height="30" as="geometry" />
        </mxCell>
        <mxCell id="-WLtqhEO8Z-k--BGQzyH-4" style="edgeStyle=orthogonalEdgeStyle;rounded=0;orthogonalLoop=1;jettySize=auto;html=1;exitX=0.5;exitY=1;exitDx=0;exitDy=0;entryX=0.513;entryY=0.025;entryDx=0;entryDy=0;entryPerimeter=0;" parent="1" source="-WLtqhEO8Z-k--BGQzyH-2" edge="1" target="0sXFW3jJvVCvKRfFhtP7-24">
          <mxGeometry relative="1" as="geometry">
            <mxPoint x="680" y="360" as="targetPoint" />
          </mxGeometry>
        </mxCell>
        <mxCell id="-WLtqhEO8Z-k--BGQzyH-5" style="edgeStyle=orthogonalEdgeStyle;rounded=0;orthogonalLoop=1;jettySize=auto;html=1;" parent="1" source="-WLtqhEO8Z-k--BGQzyH-2" edge="1" target="0sXFW3jJvVCvKRfFhtP7-32">
          <mxGeometry relative="1" as="geometry">
            <mxPoint x="790" y="610" as="targetPoint" />
            <Array as="points">
              <mxPoint x="790" y="260" />
            </Array>
          </mxGeometry>
        </mxCell>
        <mxCell id="0sXFW3jJvVCvKRfFhtP7-13" style="edgeStyle=orthogonalEdgeStyle;rounded=0;orthogonalLoop=1;jettySize=auto;html=1;entryX=0.5;entryY=0;entryDx=0;entryDy=0;" parent="1" edge="1" target="0sXFW3jJvVCvKRfFhtP7-10">
          <mxGeometry relative="1" as="geometry">
            <mxPoint x="641" y="260" as="sourcePoint" />
            <mxPoint x="521" y="320" as="targetPoint" />
            <Array as="points">
              <mxPoint x="521" y="260" />
            </Array>
          </mxGeometry>
        </mxCell>
        <mxCell id="0sXFW3jJvVCvKRfFhtP7-33" style="edgeStyle=orthogonalEdgeStyle;rounded=0;orthogonalLoop=1;jettySize=auto;html=1;" parent="1" source="-WLtqhEO8Z-k--BGQzyH-2" edge="1" target="0sXFW3jJvVCvKRfFhtP7-38">
          <mxGeometry relative="1" as="geometry">
            <mxPoint x="350" y="540" as="targetPoint" />
          </mxGeometry>
        </mxCell>
        <mxCell id="-WLtqhEO8Z-k--BGQzyH-2" value="SE" style="rhombus;whiteSpace=wrap;html=1;fontFamily=Lucida Console;fontStyle=1;fillColor=#e1d5e7;strokeColor=#9673a6;" parent="1" vertex="1">
          <mxGeometry x="640" y="220" width="80" height="80" as="geometry" />
        </mxCell>
        <mxCell id="0sXFW3jJvVCvKRfFhtP7-19" value="" style="edgeStyle=orthogonalEdgeStyle;rounded=0;orthogonalLoop=1;jettySize=auto;html=1;" parent="1" edge="1">
          <mxGeometry relative="1" as="geometry">
            <mxPoint x="522" y="499" as="sourcePoint" />
            <mxPoint x="522" y="563" as="targetPoint" />
          </mxGeometry>
        </mxCell>
        <mxCell id="0sXFW3jJvVCvKRfFhtP7-7" value="&lt;font style=&quot;font-size: 12px;&quot;&gt;Exiba &lt;br style=&quot;font-size: 12px;&quot;&gt;&quot;Você é homem e menino&quot;&lt;/font&gt;" style="text;html=1;align=center;verticalAlign=middle;resizable=0;points=[];autosize=1;strokeColor=none;fillColor=none;fontSize=12;fontFamily=Lucida Console;" parent="1" vertex="1">
          <mxGeometry x="427" y="450" width="190" height="40" as="geometry" />
        </mxCell>
        <mxCell id="0sXFW3jJvVCvKRfFhtP7-15" value="" style="ellipse;whiteSpace=wrap;html=1;fillColor=#f8cecc;strokeColor=#b85450;gradientColor=none;strokeWidth=4;perimeterSpacing=10;shadow=0;direction=south;" parent="1" vertex="1">
          <mxGeometry x="492" y="564" width="60" height="60" as="geometry" />
        </mxCell>
        <mxCell id="0sXFW3jJvVCvKRfFhtP7-24" value="Exiba &quot;Você é homem &lt;br&gt;maior de idade&quot;" style="text;html=1;align=center;verticalAlign=middle;resizable=0;points=[];autosize=1;strokeColor=none;fillColor=none;fontSize=12;fontFamily=Lucida Console;" parent="1" vertex="1">
          <mxGeometry x="597" y="515" width="160" height="40" as="geometry" />
        </mxCell>
        <mxCell id="0sXFW3jJvVCvKRfFhtP7-31" value="" style="rounded=1;whiteSpace=wrap;html=1;" parent="1" vertex="1">
          <mxGeometry x="680" y="690" width="140" height="40" as="geometry" />
        </mxCell>
        <mxCell id="0sXFW3jJvVCvKRfFhtP7-43" style="edgeStyle=orthogonalEdgeStyle;rounded=0;orthogonalLoop=1;jettySize=auto;html=1;" parent="1" source="0sXFW3jJvVCvKRfFhtP7-32" edge="1">
          <mxGeometry relative="1" as="geometry">
            <mxPoint x="530" y="630" as="targetPoint" />
          </mxGeometry>
        </mxCell>
        <mxCell id="0sXFW3jJvVCvKRfFhtP7-32" value="&lt;font face=&quot;Lucida Console&quot;&gt;Exiba &quot;Você é &lt;br&gt;mulher e menina&quot;&lt;/font&gt;" style="text;html=1;align=center;verticalAlign=middle;resizable=0;points=[];autosize=1;strokeColor=none;fillColor=none;" parent="1" vertex="1">
          <mxGeometry x="680" y="690" width="140" height="40" as="geometry" />
        </mxCell>
        <mxCell id="0sXFW3jJvVCvKRfFhtP7-37" value="" style="rounded=1;whiteSpace=wrap;html=1;" parent="1" vertex="1">
          <mxGeometry x="287" y="690" width="140" height="40" as="geometry" />
        </mxCell>
        <mxCell id="0sXFW3jJvVCvKRfFhtP7-39" style="edgeStyle=orthogonalEdgeStyle;rounded=0;orthogonalLoop=1;jettySize=auto;html=1;" parent="1" source="0sXFW3jJvVCvKRfFhtP7-38" edge="1">
          <mxGeometry relative="1" as="geometry">
            <mxPoint x="510" y="630" as="targetPoint" />
          </mxGeometry>
        </mxCell>
        <mxCell id="0sXFW3jJvVCvKRfFhtP7-38" value="&lt;font face=&quot;Lucida Console&quot; style=&quot;font-size: 10px;&quot;&gt;Exiba &quot;Você é mulher &lt;br style=&quot;font-size: 10px;&quot;&gt;maior de idade&quot;&lt;/font&gt;" style="text;html=1;align=center;verticalAlign=middle;resizable=0;points=[];autosize=1;strokeColor=none;fillColor=none;fontSize=10;" parent="1" vertex="1">
          <mxGeometry x="288" y="690" width="140" height="40" as="geometry" />
        </mxCell>
        <mxCell id="Rz7pivCFXFgLF_BUCO_A-1" value="Homem e menor&lt;br style=&quot;border-color: var(--border-color);&quot;&gt;&lt;span style=&quot;&quot;&gt;de 18 anos&lt;/span&gt;" style="text;html=1;align=center;verticalAlign=middle;resizable=0;points=[];autosize=1;strokeColor=none;fillColor=none;fontFamily=Lucida Console;rotation=90;" vertex="1" parent="1">
          <mxGeometry x="482" y="340" width="120" height="40" as="geometry" />
        </mxCell>
        <mxCell id="Rz7pivCFXFgLF_BUCO_A-2" value="Homem e idade a&lt;br style=&quot;border-color: var(--border-color);&quot;&gt;&lt;span style=&quot;&quot;&gt;partir de 18 anos&lt;/span&gt;" style="text;html=1;align=center;verticalAlign=middle;resizable=0;points=[];autosize=1;strokeColor=none;fillColor=none;fontFamily=Lucida Console;rotation=90;" vertex="1" parent="1">
          <mxGeometry x="635" y="380" width="150" height="40" as="geometry" />
        </mxCell>
        <mxCell id="Rz7pivCFXFgLF_BUCO_A-4" value="Mulher e menor&amp;nbsp;&lt;span style=&quot;font-family: &amp;quot;Lucida Console&amp;quot;;&quot;&gt;de 18 anos&lt;/span&gt;" style="text;html=1;align=center;verticalAlign=middle;resizable=0;points=[];autosize=1;strokeColor=none;fillColor=none;rotation=90;" vertex="1" parent="1">
          <mxGeometry x="715" y="465" width="180" height="30" as="geometry" />
        </mxCell>
        <mxCell id="Rz7pivCFXFgLF_BUCO_A-5" value="Mulher e idade a&amp;nbsp;&lt;span style=&quot;font-family: &amp;quot;Lucida Console&amp;quot;;&quot;&gt;partir de 18 anos&lt;/span&gt;" style="text;html=1;align=center;verticalAlign=middle;resizable=0;points=[];autosize=1;strokeColor=none;fillColor=none;rotation=-90;" vertex="1" parent="1">
          <mxGeometry x="220" y="465" width="240" height="30" as="geometry" />
        </mxCell>
      </root>
    </mxGraphModel>
  </diagram>
  <diagram id="V6TfkpTgExr0uO85sx0R" name="Exercício 4">
    <mxGraphModel dx="1707" dy="446" grid="1" gridSize="10" guides="1" tooltips="1" connect="1" arrows="1" fold="1" page="1" pageScale="1" pageWidth="827" pageHeight="1169" math="0" shadow="0">
      <root>
        <mxCell id="0" />
        <mxCell id="1" parent="0" />
        <mxCell id="_kyY4ZT3AqP3pEWQSd1F-7" style="edgeStyle=orthogonalEdgeStyle;rounded=0;orthogonalLoop=1;jettySize=auto;html=1;exitX=0;exitY=0.5;exitDx=0;exitDy=0;entryX=1;entryY=1;entryDx=0;entryDy=0;" edge="1" parent="1" source="tYYE5NrNenthWgbXr141-1" target="tYYE5NrNenthWgbXr141-4">
          <mxGeometry relative="1" as="geometry" />
        </mxCell>
        <mxCell id="tYYE5NrNenthWgbXr141-1" value="LER ESTADO" style="rounded=1;whiteSpace=wrap;html=1;" parent="1" vertex="1">
          <mxGeometry x="210" y="210" width="120" height="60" as="geometry" />
        </mxCell>
        <mxCell id="tYYE5NrNenthWgbXr141-5" style="edgeStyle=orthogonalEdgeStyle;rounded=0;orthogonalLoop=1;jettySize=auto;html=1;exitX=0.5;exitY=1;exitDx=0;exitDy=0;entryX=0.5;entryY=0;entryDx=0;entryDy=0;" parent="1" source="tYYE5NrNenthWgbXr141-4" edge="1" target="0r1ZI_wudukVkOwkG09o-3">
          <mxGeometry relative="1" as="geometry">
            <mxPoint x="50" y="290" as="targetPoint" />
          </mxGeometry>
        </mxCell>
        <mxCell id="_kyY4ZT3AqP3pEWQSd1F-8" style="edgeStyle=orthogonalEdgeStyle;rounded=0;orthogonalLoop=1;jettySize=auto;html=1;exitX=1;exitY=0.5;exitDx=0;exitDy=0;entryX=0;entryY=0.5;entryDx=0;entryDy=0;" edge="1" parent="1" source="tYYE5NrNenthWgbXr141-4" target="_kyY4ZT3AqP3pEWQSd1F-1">
          <mxGeometry relative="1" as="geometry" />
        </mxCell>
        <mxCell id="tYYE5NrNenthWgbXr141-4" value="" style="rhombus;whiteSpace=wrap;html=1;" parent="1" vertex="1">
          <mxGeometry x="10" y="120" width="80" height="80" as="geometry" />
        </mxCell>
        <mxCell id="_kyY4ZT3AqP3pEWQSd1F-10" style="edgeStyle=orthogonalEdgeStyle;rounded=0;orthogonalLoop=1;jettySize=auto;html=1;exitX=0.5;exitY=1;exitDx=0;exitDy=0;entryX=0.5;entryY=0;entryDx=0;entryDy=0;" edge="1" parent="1" source="0r1ZI_wudukVkOwkG09o-1" target="_kyY4ZT3AqP3pEWQSd1F-1">
          <mxGeometry relative="1" as="geometry" />
        </mxCell>
        <mxCell id="0r1ZI_wudukVkOwkG09o-1" value="" style="ellipse;whiteSpace=wrap;html=1;fillColor=#60a917;strokeColor=#2D7600;fontColor=#ffffff;" parent="1" vertex="1">
          <mxGeometry x="255" y="60" width="30" height="30" as="geometry" />
        </mxCell>
        <mxCell id="0r1ZI_wudukVkOwkG09o-5" style="edgeStyle=orthogonalEdgeStyle;rounded=0;orthogonalLoop=1;jettySize=auto;html=1;entryX=0.5;entryY=0;entryDx=0;entryDy=0;" parent="1" source="0r1ZI_wudukVkOwkG09o-3" target="0r1ZI_wudukVkOwkG09o-4" edge="1">
          <mxGeometry relative="1" as="geometry" />
        </mxCell>
        <mxCell id="0r1ZI_wudukVkOwkG09o-3" value="LER QUANTIDADE&amp;nbsp;&lt;br&gt;DE FILHOS" style="rounded=1;whiteSpace=wrap;html=1;" parent="1" vertex="1">
          <mxGeometry x="-10" y="440" width="120" height="60" as="geometry" />
        </mxCell>
        <mxCell id="0r1ZI_wudukVkOwkG09o-6" style="edgeStyle=orthogonalEdgeStyle;rounded=0;orthogonalLoop=1;jettySize=auto;html=1;entryX=0;entryY=0.5;entryDx=0;entryDy=0;" parent="1" source="0r1ZI_wudukVkOwkG09o-4" target="0r1ZI_wudukVkOwkG09o-7" edge="1">
          <mxGeometry relative="1" as="geometry">
            <mxPoint x="160" y="540" as="targetPoint" />
          </mxGeometry>
        </mxCell>
        <mxCell id="_kyY4ZT3AqP3pEWQSd1F-11" style="edgeStyle=orthogonalEdgeStyle;rounded=0;orthogonalLoop=1;jettySize=auto;html=1;exitX=0.5;exitY=1;exitDx=0;exitDy=0;entryX=0.5;entryY=0;entryDx=0;entryDy=0;" edge="1" parent="1" source="0r1ZI_wudukVkOwkG09o-4" target="HOOw7iZH6I7UxoCV0g9a-11">
          <mxGeometry relative="1" as="geometry">
            <mxPoint x="50" y="680" as="targetPoint" />
          </mxGeometry>
        </mxCell>
        <mxCell id="_kyY4ZT3AqP3pEWQSd1F-15" value="&amp;gt;= 0 e &amp;lt;=15" style="edgeLabel;html=1;align=center;verticalAlign=middle;resizable=0;points=[];" vertex="1" connectable="0" parent="_kyY4ZT3AqP3pEWQSd1F-11">
          <mxGeometry x="-0.1314" y="1" relative="1" as="geometry">
            <mxPoint as="offset" />
          </mxGeometry>
        </mxCell>
        <mxCell id="0r1ZI_wudukVkOwkG09o-4" value="SE" style="rhombus;whiteSpace=wrap;html=1;" parent="1" vertex="1">
          <mxGeometry x="10" y="545" width="80" height="80" as="geometry" />
        </mxCell>
        <mxCell id="_kyY4ZT3AqP3pEWQSd1F-14" style="edgeStyle=orthogonalEdgeStyle;rounded=0;orthogonalLoop=1;jettySize=auto;html=1;exitX=0.5;exitY=0;exitDx=0;exitDy=0;entryX=1;entryY=0.5;entryDx=0;entryDy=0;" edge="1" parent="1" source="0r1ZI_wudukVkOwkG09o-7" target="_kyY4ZT3AqP3pEWQSd1F-13">
          <mxGeometry relative="1" as="geometry" />
        </mxCell>
        <mxCell id="0r1ZI_wudukVkOwkG09o-7" value="$FILHOS &amp;gt;= 15 ou&amp;nbsp;&lt;br&gt;$FILHOS &amp;lt;0" style="rounded=1;whiteSpace=wrap;html=1;" parent="1" vertex="1">
          <mxGeometry x="270" y="555" width="120" height="60" as="geometry" />
        </mxCell>
        <mxCell id="HOOw7iZH6I7UxoCV0g9a-4" value="" style="ellipse;whiteSpace=wrap;html=1;fillColor=#f8cecc;strokeColor=#000000;gradientColor=#FF0000;strokeWidth=4;" parent="1" vertex="1">
          <mxGeometry x="360" y="1000" width="37" height="34" as="geometry" />
        </mxCell>
        <mxCell id="HOOw7iZH6I7UxoCV0g9a-7" value="QUANTIDADE INVALIDA" style="text;html=1;align=center;verticalAlign=middle;resizable=0;points=[];autosize=1;strokeColor=none;fillColor=none;rotation=0;fontSize=12;" parent="1" vertex="1">
          <mxGeometry x="140" y="340" width="160" height="30" as="geometry" />
        </mxCell>
        <mxCell id="HOOw7iZH6I7UxoCV0g9a-13" value="" style="edgeStyle=orthogonalEdgeStyle;rounded=0;orthogonalLoop=1;jettySize=auto;html=1;" parent="1" source="HOOw7iZH6I7UxoCV0g9a-11" target="HOOw7iZH6I7UxoCV0g9a-12" edge="1">
          <mxGeometry relative="1" as="geometry" />
        </mxCell>
        <mxCell id="HOOw7iZH6I7UxoCV0g9a-16" value="" style="edgeStyle=orthogonalEdgeStyle;rounded=0;orthogonalLoop=1;jettySize=auto;html=1;" parent="1" source="HOOw7iZH6I7UxoCV0g9a-11" target="HOOw7iZH6I7UxoCV0g9a-15" edge="1">
          <mxGeometry relative="1" as="geometry" />
        </mxCell>
        <mxCell id="HOOw7iZH6I7UxoCV0g9a-29" style="edgeStyle=orthogonalEdgeStyle;rounded=0;orthogonalLoop=1;jettySize=auto;html=1;exitX=1;exitY=0;exitDx=0;exitDy=0;entryX=0.5;entryY=0;entryDx=0;entryDy=0;" parent="1" source="HOOw7iZH6I7UxoCV0g9a-11" target="HOOw7iZH6I7UxoCV0g9a-22" edge="1">
          <mxGeometry relative="1" as="geometry" />
        </mxCell>
        <mxCell id="HOOw7iZH6I7UxoCV0g9a-33" style="edgeStyle=orthogonalEdgeStyle;rounded=0;orthogonalLoop=1;jettySize=auto;html=1;exitX=1;exitY=1;exitDx=0;exitDy=0;entryX=0;entryY=0.5;entryDx=0;entryDy=0;" parent="1" source="HOOw7iZH6I7UxoCV0g9a-11" target="HOOw7iZH6I7UxoCV0g9a-31" edge="1">
          <mxGeometry relative="1" as="geometry" />
        </mxCell>
        <mxCell id="HOOw7iZH6I7UxoCV0g9a-37" style="edgeStyle=orthogonalEdgeStyle;rounded=0;orthogonalLoop=1;jettySize=auto;html=1;exitX=0;exitY=0.5;exitDx=0;exitDy=0;" parent="1" source="HOOw7iZH6I7UxoCV0g9a-11" target="HOOw7iZH6I7UxoCV0g9a-36" edge="1">
          <mxGeometry relative="1" as="geometry" />
        </mxCell>
        <mxCell id="HOOw7iZH6I7UxoCV0g9a-11" value="SE" style="rhombus;whiteSpace=wrap;html=1;" parent="1" vertex="1">
          <mxGeometry x="10" y="800" width="80" height="80" as="geometry" />
        </mxCell>
        <mxCell id="HOOw7iZH6I7UxoCV0g9a-17" style="edgeStyle=orthogonalEdgeStyle;rounded=0;orthogonalLoop=1;jettySize=auto;html=1;exitX=1;exitY=0.5;exitDx=0;exitDy=0;entryX=0;entryY=1;entryDx=0;entryDy=0;" parent="1" source="HOOw7iZH6I7UxoCV0g9a-12" target="HOOw7iZH6I7UxoCV0g9a-4" edge="1">
          <mxGeometry relative="1" as="geometry" />
        </mxCell>
        <mxCell id="HOOw7iZH6I7UxoCV0g9a-12" value="&lt;font face=&quot;Lucida Console&quot;&gt;Exiba #nãotemtv&amp;nbsp; #nãoteminternet #nãotemvideogame&lt;/font&gt;" style="whiteSpace=wrap;html=1;" parent="1" vertex="1">
          <mxGeometry x="-10" y="1060" width="120" height="60" as="geometry" />
        </mxCell>
        <mxCell id="HOOw7iZH6I7UxoCV0g9a-14" value="QUANTIDADE DE FILHOS&lt;br style=&quot;font-size: 8px;&quot;&gt;= 3" style="text;html=1;align=center;verticalAlign=middle;resizable=0;points=[];autosize=1;strokeColor=none;fillColor=none;rotation=90;fontSize=8;" parent="1" vertex="1">
          <mxGeometry x="10" y="970" width="120" height="30" as="geometry" />
        </mxCell>
        <mxCell id="HOOw7iZH6I7UxoCV0g9a-32" style="edgeStyle=orthogonalEdgeStyle;rounded=0;orthogonalLoop=1;jettySize=auto;html=1;exitX=1;exitY=0.5;exitDx=0;exitDy=0;entryX=1;entryY=0;entryDx=0;entryDy=0;" parent="1" source="HOOw7iZH6I7UxoCV0g9a-15" target="HOOw7iZH6I7UxoCV0g9a-4" edge="1">
          <mxGeometry relative="1" as="geometry" />
        </mxCell>
        <mxCell id="HOOw7iZH6I7UxoCV0g9a-15" value="Exiba&amp;nbsp;&lt;font face=&quot;Lucida Console&quot;&gt;#nãotemtv&lt;br&gt;&lt;/font&gt;" style="whiteSpace=wrap;html=1;" parent="1" vertex="1">
          <mxGeometry x="240" y="810" width="120" height="60" as="geometry" />
        </mxCell>
        <mxCell id="HOOw7iZH6I7UxoCV0g9a-20" value="QUANTIDADE DE FILHOS&lt;br style=&quot;font-size: 8px;&quot;&gt;= 2" style="text;html=1;align=center;verticalAlign=middle;resizable=0;points=[];autosize=1;strokeColor=none;fillColor=none;rotation=0;fontSize=8;" parent="1" vertex="1">
          <mxGeometry x="103" y="840" width="120" height="30" as="geometry" />
        </mxCell>
        <mxCell id="HOOw7iZH6I7UxoCV0g9a-30" style="edgeStyle=orthogonalEdgeStyle;rounded=0;orthogonalLoop=1;jettySize=auto;html=1;exitX=0.5;exitY=1;exitDx=0;exitDy=0;entryX=1;entryY=0.5;entryDx=0;entryDy=0;" parent="1" source="HOOw7iZH6I7UxoCV0g9a-22" target="HOOw7iZH6I7UxoCV0g9a-4" edge="1">
          <mxGeometry relative="1" as="geometry" />
        </mxCell>
        <mxCell id="HOOw7iZH6I7UxoCV0g9a-22" value="Exiba #nãotemvideogame" style="whiteSpace=wrap;html=1;" parent="1" vertex="1">
          <mxGeometry x="360" y="710" width="120" height="50" as="geometry" />
        </mxCell>
        <mxCell id="HOOw7iZH6I7UxoCV0g9a-24" value="QUANTIDADE DE FILHOS&lt;br style=&quot;font-size: 8px;&quot;&gt;= 1&amp;nbsp;" style="text;html=1;align=center;verticalAlign=middle;resizable=0;points=[];autosize=1;strokeColor=none;fillColor=none;rotation=0;fontSize=8;" parent="1" vertex="1">
          <mxGeometry x="98" y="788" width="120" height="30" as="geometry" />
        </mxCell>
        <mxCell id="HOOw7iZH6I7UxoCV0g9a-35" style="edgeStyle=orthogonalEdgeStyle;rounded=0;orthogonalLoop=1;jettySize=auto;html=1;exitX=1;exitY=0.5;exitDx=0;exitDy=0;entryX=0;entryY=0.5;entryDx=0;entryDy=0;" parent="1" source="HOOw7iZH6I7UxoCV0g9a-31" target="HOOw7iZH6I7UxoCV0g9a-4" edge="1">
          <mxGeometry relative="1" as="geometry" />
        </mxCell>
        <mxCell id="HOOw7iZH6I7UxoCV0g9a-31" value="&lt;font&gt;Exiba #tv #internet&amp;nbsp; #videogame&lt;/font&gt;" style="whiteSpace=wrap;html=1;fontFamily=Lucida Console;" parent="1" vertex="1">
          <mxGeometry x="130" y="987" width="120" height="60" as="geometry" />
        </mxCell>
        <mxCell id="HOOw7iZH6I7UxoCV0g9a-34" value="QUANTIDADE DE FILHOS&lt;br style=&quot;font-size: 8px;&quot;&gt;= 0" style="text;html=1;align=center;verticalAlign=middle;resizable=0;points=[];autosize=1;strokeColor=none;fillColor=none;rotation=90;fontSize=8;" parent="1" vertex="1">
          <mxGeometry x="65" y="915" width="120" height="30" as="geometry" />
        </mxCell>
        <mxCell id="HOOw7iZH6I7UxoCV0g9a-40" style="edgeStyle=orthogonalEdgeStyle;rounded=0;orthogonalLoop=1;jettySize=auto;html=1;exitX=0.5;exitY=1;exitDx=0;exitDy=0;entryX=1;entryY=1;entryDx=0;entryDy=0;" parent="1" source="HOOw7iZH6I7UxoCV0g9a-36" target="HOOw7iZH6I7UxoCV0g9a-4" edge="1">
          <mxGeometry relative="1" as="geometry" />
        </mxCell>
        <mxCell id="HOOw7iZH6I7UxoCV0g9a-36" value="Exiba&lt;br&gt;#cresceiemultiplicaivos" style="whiteSpace=wrap;html=1;fontFamily=Lucida Console;" parent="1" vertex="1">
          <mxGeometry x="-210" y="1060" width="180" height="60" as="geometry" />
        </mxCell>
        <mxCell id="HOOw7iZH6I7UxoCV0g9a-38" value="QUANTIDADE DE FILHOS &amp;gt; 3" style="text;html=1;align=center;verticalAlign=middle;resizable=0;points=[];autosize=1;strokeColor=none;fillColor=none;rotation=0;fontSize=8;" parent="1" vertex="1">
          <mxGeometry x="-110" y="815" width="130" height="20" as="geometry" />
        </mxCell>
        <mxCell id="_kyY4ZT3AqP3pEWQSd1F-3" style="edgeStyle=orthogonalEdgeStyle;rounded=0;orthogonalLoop=1;jettySize=auto;html=1;exitX=0.5;exitY=1;exitDx=0;exitDy=0;entryX=0.5;entryY=0;entryDx=0;entryDy=0;" edge="1" parent="1" source="_kyY4ZT3AqP3pEWQSd1F-1" target="tYYE5NrNenthWgbXr141-1">
          <mxGeometry relative="1" as="geometry" />
        </mxCell>
        <mxCell id="_kyY4ZT3AqP3pEWQSd1F-1" value="Exiba &quot;Informe o estado em que nasceu&quot;" style="whiteSpace=wrap;html=1;" vertex="1" parent="1">
          <mxGeometry x="210" y="130" width="120" height="60" as="geometry" />
        </mxCell>
        <mxCell id="_kyY4ZT3AqP3pEWQSd1F-4" value="&lt;span style=&quot;color: rgb(0, 0, 0); font-family: Helvetica; font-size: 12px; font-style: normal; font-variant-ligatures: normal; font-variant-caps: normal; font-weight: 400; letter-spacing: normal; orphans: 2; text-align: center; text-indent: 0px; text-transform: none; widows: 2; word-spacing: 0px; -webkit-text-stroke-width: 0px; background-color: rgb(251, 251, 251); text-decoration-thickness: initial; text-decoration-style: initial; text-decoration-color: initial; float: none; display: inline !important;&quot;&gt;ESTADO INVÁLIDO&lt;/span&gt;" style="text;whiteSpace=wrap;html=1;rotation=0;" vertex="1" parent="1">
          <mxGeometry x="92" y="138" width="140" height="40" as="geometry" />
        </mxCell>
        <mxCell id="_kyY4ZT3AqP3pEWQSd1F-9" value="&lt;span style=&quot;color: rgb(0, 0, 0); font-family: Helvetica; font-size: 12px; font-style: normal; font-variant-ligatures: normal; font-variant-caps: normal; font-weight: 400; letter-spacing: normal; orphans: 2; text-align: center; text-indent: 0px; text-transform: none; widows: 2; word-spacing: 0px; -webkit-text-stroke-width: 0px; background-color: rgb(251, 251, 251); text-decoration-thickness: initial; text-decoration-style: initial; text-decoration-color: initial; float: none; display: inline !important;&quot;&gt;ESTADO VÁLIDO&lt;br&gt;&lt;/span&gt;" style="text;whiteSpace=wrap;html=1;rotation=-90;" vertex="1" parent="1">
          <mxGeometry x="-18.5" y="253.5" width="110" height="25" as="geometry" />
        </mxCell>
        <mxCell id="_kyY4ZT3AqP3pEWQSd1F-13" value="Exiba &quot;Informe quantidade de filhos&quot;" style="rounded=1;whiteSpace=wrap;html=1;" vertex="1" parent="1">
          <mxGeometry x="-10" y="340" width="120" height="60" as="geometry" />
        </mxCell>
      </root>
    </mxGraphModel>
  </diagram>
  <diagram id="lnzKt6EBa3Us2DEFWZFM" name="Exercicio 5">
    <mxGraphModel dx="880" dy="446" grid="1" gridSize="10" guides="1" tooltips="1" connect="1" arrows="1" fold="1" page="1" pageScale="1" pageWidth="827" pageHeight="1169" math="0" shadow="0">
      <root>
        <mxCell id="0" />
        <mxCell id="1" parent="0" />
        <mxCell id="9AasdFRQWmLpFuP8qHST-1" style="edgeStyle=orthogonalEdgeStyle;rounded=0;orthogonalLoop=1;jettySize=auto;html=1;entryX=0.55;entryY=0.138;entryDx=0;entryDy=0;entryPerimeter=0;" parent="1" target="9AasdFRQWmLpFuP8qHST-20" edge="1">
          <mxGeometry relative="1" as="geometry">
            <mxPoint x="597" y="535" as="sourcePoint" />
          </mxGeometry>
        </mxCell>
        <mxCell id="9AasdFRQWmLpFuP8qHST-2" value="&lt;font face=&quot;Lucida Console&quot;&gt;exiba &quot;Boa concentração&quot;&lt;/font&gt;" style="rounded=1;whiteSpace=wrap;html=1;" parent="1" vertex="1">
          <mxGeometry x="593" y="515" width="174" height="40" as="geometry" />
        </mxCell>
        <mxCell id="9AasdFRQWmLpFuP8qHST-4" value="&lt;font face=&quot;Lucida Console&quot;&gt;Exiba &quot;Pouca concentração&quot;&lt;/font&gt;" style="rounded=1;whiteSpace=wrap;html=1;" parent="1" vertex="1">
          <mxGeometry x="435" y="440" width="174" height="60" as="geometry" />
        </mxCell>
        <mxCell id="9AasdFRQWmLpFuP8qHST-8" style="edgeStyle=orthogonalEdgeStyle;rounded=0;orthogonalLoop=1;jettySize=auto;html=1;entryX=0.5;entryY=0;entryDx=0;entryDy=0;" parent="1" source="9AasdFRQWmLpFuP8qHST-9" target="9AasdFRQWmLpFuP8qHST-15" edge="1">
          <mxGeometry relative="1" as="geometry" />
        </mxCell>
        <mxCell id="9AasdFRQWmLpFuP8qHST-9" value="LER AS HORAS" style="rounded=1;whiteSpace=wrap;html=1;fillColor=#dae8fc;strokeColor=#6c8ebf;fontFamily=Lucida Console;fontStyle=1;" parent="1" vertex="1">
          <mxGeometry x="314" y="120" width="200" height="90" as="geometry" />
        </mxCell>
        <mxCell id="9AasdFRQWmLpFuP8qHST-11" style="edgeStyle=orthogonalEdgeStyle;rounded=0;orthogonalLoop=1;jettySize=auto;html=1;exitX=0.5;exitY=1;exitDx=0;exitDy=0;entryX=0.5;entryY=0;entryDx=0;entryDy=0;" parent="1" source="9AasdFRQWmLpFuP8qHST-15" edge="1" target="9AasdFRQWmLpFuP8qHST-2">
          <mxGeometry relative="1" as="geometry">
            <mxPoint x="680" y="360" as="targetPoint" />
          </mxGeometry>
        </mxCell>
        <mxCell id="9AasdFRQWmLpFuP8qHST-12" style="edgeStyle=orthogonalEdgeStyle;rounded=0;orthogonalLoop=1;jettySize=auto;html=1;entryX=0.5;entryY=0;entryDx=0;entryDy=0;" parent="1" source="9AasdFRQWmLpFuP8qHST-15" edge="1" target="9AasdFRQWmLpFuP8qHST-27">
          <mxGeometry relative="1" as="geometry">
            <mxPoint x="790" y="610" as="targetPoint" />
            <Array as="points">
              <mxPoint x="790" y="260" />
            </Array>
          </mxGeometry>
        </mxCell>
        <mxCell id="9AasdFRQWmLpFuP8qHST-13" style="edgeStyle=orthogonalEdgeStyle;rounded=0;orthogonalLoop=1;jettySize=auto;html=1;entryX=0.5;entryY=0;entryDx=0;entryDy=0;" parent="1" edge="1" target="9AasdFRQWmLpFuP8qHST-4">
          <mxGeometry relative="1" as="geometry">
            <mxPoint x="641" y="260" as="sourcePoint" />
            <mxPoint x="521" y="320" as="targetPoint" />
            <Array as="points">
              <mxPoint x="521" y="260" />
            </Array>
          </mxGeometry>
        </mxCell>
        <mxCell id="9AasdFRQWmLpFuP8qHST-14" style="edgeStyle=orthogonalEdgeStyle;rounded=0;orthogonalLoop=1;jettySize=auto;html=1;exitX=0;exitY=0;exitDx=0;exitDy=0;entryX=0.5;entryY=0;entryDx=0;entryDy=0;" parent="1" source="9AasdFRQWmLpFuP8qHST-15" target="9AasdFRQWmLpFuP8qHST-33" edge="1">
          <mxGeometry relative="1" as="geometry">
            <mxPoint x="350" y="545" as="targetPoint" />
            <mxPoint x="640" y="240" as="sourcePoint" />
          </mxGeometry>
        </mxCell>
        <mxCell id="9AasdFRQWmLpFuP8qHST-15" value="SE" style="rhombus;whiteSpace=wrap;html=1;fontFamily=Lucida Console;fontStyle=1;fillColor=#e1d5e7;strokeColor=#9673a6;" parent="1" vertex="1">
          <mxGeometry x="640" y="220" width="80" height="80" as="geometry" />
        </mxCell>
        <mxCell id="9AasdFRQWmLpFuP8qHST-18" value="" style="edgeStyle=orthogonalEdgeStyle;rounded=0;orthogonalLoop=1;jettySize=auto;html=1;" parent="1" edge="1">
          <mxGeometry relative="1" as="geometry">
            <mxPoint x="522" y="499" as="sourcePoint" />
            <mxPoint x="522" y="563" as="targetPoint" />
          </mxGeometry>
        </mxCell>
        <mxCell id="9AasdFRQWmLpFuP8qHST-20" value="" style="ellipse;whiteSpace=wrap;html=1;fillColor=#f8cecc;strokeColor=#b85450;gradientColor=none;strokeWidth=4;perimeterSpacing=10;shadow=0;direction=south;" parent="1" vertex="1">
          <mxGeometry x="492" y="564" width="60" height="60" as="geometry" />
        </mxCell>
        <mxCell id="1u_FySOyWcl1DZOGVPCG-6" style="edgeStyle=orthogonalEdgeStyle;rounded=0;orthogonalLoop=1;jettySize=auto;html=1;exitX=0;exitY=0.5;exitDx=0;exitDy=0;entryX=1;entryY=0;entryDx=0;entryDy=0;" edge="1" parent="1" source="9AasdFRQWmLpFuP8qHST-27" target="9AasdFRQWmLpFuP8qHST-20">
          <mxGeometry relative="1" as="geometry" />
        </mxCell>
        <mxCell id="9AasdFRQWmLpFuP8qHST-27" value="&lt;font face=&quot;Lucida Console&quot;&gt;exiba &quot;Olha a preguiça!&lt;/font&gt;" style="rounded=1;whiteSpace=wrap;html=1;" parent="1" vertex="1">
          <mxGeometry x="720" y="690" width="140" height="40" as="geometry" />
        </mxCell>
        <mxCell id="9AasdFRQWmLpFuP8qHST-33" value="&lt;font face=&quot;Lucida Console&quot;&gt;Exiba&lt;br&gt;&amp;nbsp;&quot;#zumbi&quot;&lt;/font&gt;" style="rounded=1;whiteSpace=wrap;html=1;" parent="1" vertex="1">
          <mxGeometry x="287" y="690" width="140" height="40" as="geometry" />
        </mxCell>
        <mxCell id="9AasdFRQWmLpFuP8qHST-34" style="edgeStyle=orthogonalEdgeStyle;rounded=0;orthogonalLoop=1;jettySize=auto;html=1;entryX=1;entryY=1;entryDx=0;entryDy=0;" parent="1" edge="1" target="9AasdFRQWmLpFuP8qHST-20">
          <mxGeometry relative="1" as="geometry">
            <mxPoint x="510" y="650" as="targetPoint" />
            <mxPoint x="428" y="710" as="sourcePoint" />
          </mxGeometry>
        </mxCell>
        <mxCell id="sjvTK5PGKC4WVe0w8bni-1" style="edgeStyle=orthogonalEdgeStyle;rounded=0;orthogonalLoop=1;jettySize=auto;html=1;entryX=0.5;entryY=0;entryDx=0;entryDy=0;" parent="1" source="9AasdFRQWmLpFuP8qHST-36" target="9AasdFRQWmLpFuP8qHST-9" edge="1">
          <mxGeometry relative="1" as="geometry" />
        </mxCell>
        <mxCell id="9AasdFRQWmLpFuP8qHST-36" value="" style="ellipse;whiteSpace=wrap;html=1;fillColor=#d5e8d4;strokeColor=#82b366;strokeWidth=4;perimeterSpacing=10;shadow=0;direction=south;" parent="1" vertex="1">
          <mxGeometry x="394" y="10" width="40" height="40" as="geometry" />
        </mxCell>
        <mxCell id="9u6WPDurSlcs7zZAM-WE-1" value="INFORME QUANTAS &lt;br&gt;HORAS&amp;nbsp; DORME" style="text;html=1;align=center;verticalAlign=middle;resizable=0;points=[];autosize=1;strokeColor=none;fillColor=none;rotation=0;fontSize=7;" parent="1" vertex="1">
          <mxGeometry x="434" y="15" width="90" height="30" as="geometry" />
        </mxCell>
        <mxCell id="1u_FySOyWcl1DZOGVPCG-1" value="&lt;font face=&quot;Lucida Console&quot;&gt;Se ele dorme mais de &lt;br&gt;4h até menos de 7h&lt;/font&gt;" style="text;html=1;align=center;verticalAlign=middle;resizable=0;points=[];autosize=1;strokeColor=none;fillColor=none;rotation=90;" vertex="1" parent="1">
          <mxGeometry x="460" y="330" width="170" height="40" as="geometry" />
        </mxCell>
        <mxCell id="1u_FySOyWcl1DZOGVPCG-3" value="&lt;font face=&quot;Lucida Console&quot;&gt;Se ele dorme de 7h a 9h&lt;/font&gt;" style="text;html=1;align=center;verticalAlign=middle;resizable=0;points=[];autosize=1;strokeColor=none;fillColor=none;rotation=90;" vertex="1" parent="1">
          <mxGeometry x="605" y="390" width="190" height="30" as="geometry" />
        </mxCell>
        <mxCell id="1u_FySOyWcl1DZOGVPCG-4" value="Se ele durme de 0h a 4h&amp;nbsp;" style="text;html=1;align=center;verticalAlign=middle;resizable=0;points=[];autosize=1;strokeColor=none;fillColor=none;rotation=-90;" vertex="1" parent="1">
          <mxGeometry x="260" y="500" width="160" height="30" as="geometry" />
        </mxCell>
        <mxCell id="1u_FySOyWcl1DZOGVPCG-5" value="&lt;font face=&quot;Lucida Console&quot;&gt;Se ele dorme mais de 9h&lt;/font&gt;" style="text;html=1;align=center;verticalAlign=middle;resizable=0;points=[];autosize=1;strokeColor=none;fillColor=none;rotation=90;" vertex="1" parent="1">
          <mxGeometry x="710" y="430" width="190" height="30" as="geometry" />
        </mxCell>
      </root>
    </mxGraphModel>
  </diagram>
  <diagram id="nTCLhmnTXciMXSDzfBkI" name="Exercício 6">
    <mxGraphModel dx="880" dy="446" grid="1" gridSize="10" guides="1" tooltips="1" connect="1" arrows="1" fold="1" page="1" pageScale="1" pageWidth="827" pageHeight="1169" math="0" shadow="0">
      <root>
        <mxCell id="0" />
        <mxCell id="1" parent="0" />
        <mxCell id="CL0RsHsE28LmDnfpR1Rt-1" style="edgeStyle=orthogonalEdgeStyle;rounded=0;orthogonalLoop=1;jettySize=auto;html=1;entryX=1;entryY=0.5;entryDx=0;entryDy=0;" parent="1" source="CL0RsHsE28LmDnfpR1Rt-2" target="CL0RsHsE28LmDnfpR1Rt-17" edge="1">
          <mxGeometry relative="1" as="geometry" />
        </mxCell>
        <mxCell id="CL0RsHsE28LmDnfpR1Rt-2" value="CALCULAR A ÁREA DO TERRENO" style="rounded=1;whiteSpace=wrap;html=1;fillColor=#e6d0de;gradientColor=#d5739d;strokeColor=#996185;fontFamily=Lucida Console;fontStyle=1" parent="1" vertex="1">
          <mxGeometry x="560" y="290" width="200" height="90" as="geometry" />
        </mxCell>
        <mxCell id="CL0RsHsE28LmDnfpR1Rt-3" value="" style="edgeStyle=orthogonalEdgeStyle;rounded=0;orthogonalLoop=1;jettySize=auto;html=1;" parent="1" source="CL0RsHsE28LmDnfpR1Rt-4" target="CL0RsHsE28LmDnfpR1Rt-6" edge="1">
          <mxGeometry relative="1" as="geometry" />
        </mxCell>
        <mxCell id="CL0RsHsE28LmDnfpR1Rt-4" value="LER A FRENTE" style="rounded=1;fillColor=#e6d0de;gradientColor=#d5739d;strokeColor=#996185;fontFamily=Lucida Console;labelBackgroundColor=none;labelBorderColor=none;whiteSpace=wrap;html=1;fontStyle=1" parent="1" vertex="1">
          <mxGeometry x="70" y="120" width="200" height="90" as="geometry" />
        </mxCell>
        <mxCell id="CL0RsHsE28LmDnfpR1Rt-5" style="edgeStyle=orthogonalEdgeStyle;rounded=0;orthogonalLoop=1;jettySize=auto;html=1;entryX=0.5;entryY=0;entryDx=0;entryDy=0;" parent="1" source="CL0RsHsE28LmDnfpR1Rt-6" target="CL0RsHsE28LmDnfpR1Rt-2" edge="1">
          <mxGeometry relative="1" as="geometry">
            <mxPoint x="660" y="280" as="targetPoint" />
          </mxGeometry>
        </mxCell>
        <mxCell id="CL0RsHsE28LmDnfpR1Rt-6" value="LER A LATERAL" style="rounded=1;whiteSpace=wrap;html=1;fillColor=#e6d0de;gradientColor=#d5739d;strokeColor=#996185;fontFamily=Lucida Console;fontStyle=1" parent="1" vertex="1">
          <mxGeometry x="560" y="120" width="200" height="90" as="geometry" />
        </mxCell>
        <mxCell id="CL0RsHsE28LmDnfpR1Rt-7" value="" style="edgeStyle=orthogonalEdgeStyle;rounded=0;orthogonalLoop=1;jettySize=auto;html=1;" parent="1" source="CL0RsHsE28LmDnfpR1Rt-8" target="CL0RsHsE28LmDnfpR1Rt-10" edge="1">
          <mxGeometry relative="1" as="geometry">
            <Array as="points">
              <mxPoint x="110" y="555" />
            </Array>
          </mxGeometry>
        </mxCell>
        <mxCell id="CL0RsHsE28LmDnfpR1Rt-8" value="Exiba “#terrenopequeno”" style="whiteSpace=wrap;html=1;rounded=1;fillColor=#e6d0de;gradientColor=#d5739d;strokeColor=#996185;fontStyle=1;fontFamily=Lucida Console;" parent="1" vertex="1">
          <mxGeometry x="70" y="230" width="200" height="90" as="geometry" />
        </mxCell>
        <mxCell id="CL0RsHsE28LmDnfpR1Rt-10" value="" style="ellipse;whiteSpace=wrap;html=1;fillColor=#fa6800;strokeColor=#C73500;fontColor=#000000;" parent="1" vertex="1">
          <mxGeometry x="155" y="540" width="30" height="30" as="geometry" />
        </mxCell>
        <mxCell id="CL0RsHsE28LmDnfpR1Rt-11" value="&lt;font face=&quot;Lucida Console&quot;&gt;Se a área for &lt;br&gt;menor que 100&lt;/font&gt;" style="text;html=1;align=center;verticalAlign=middle;resizable=0;points=[];autosize=1;strokeColor=none;fillColor=none;fontStyle=1;fontSize=8;" parent="1" vertex="1">
          <mxGeometry x="290" y="240" width="100" height="30" as="geometry" />
        </mxCell>
        <mxCell id="CL0RsHsE28LmDnfpR1Rt-12" style="edgeStyle=orthogonalEdgeStyle;rounded=0;orthogonalLoop=1;jettySize=auto;html=1;entryX=1;entryY=0.5;entryDx=0;entryDy=0;" parent="1" source="CL0RsHsE28LmDnfpR1Rt-13" target="CL0RsHsE28LmDnfpR1Rt-10" edge="1">
          <mxGeometry relative="1" as="geometry" />
        </mxCell>
        <mxCell id="CL0RsHsE28LmDnfpR1Rt-13" value="Exiba &quot;#terrenomedio”" style="whiteSpace=wrap;html=1;rounded=1;fillColor=#e6d0de;gradientColor=#d5739d;strokeColor=#996185;fontFamily=Lucida Console;fontStyle=1" parent="1" vertex="1">
          <mxGeometry x="120" y="400" width="200" height="90" as="geometry" />
        </mxCell>
        <mxCell id="CL0RsHsE28LmDnfpR1Rt-14" value="&lt;div style=&quot;direction: rtl; font-size: 8px;&quot;&gt;&lt;font style=&quot;font-size: 8px;&quot;&gt;Se a área estiver&amp;nbsp;&lt;/font&gt;&lt;/div&gt;&lt;div style=&quot;direction: rtl; font-size: 8px;&quot;&gt;&lt;font style=&quot;font-size: 8px;&quot;&gt;entre 100 e 250&lt;/font&gt;&lt;br style=&quot;font-size: 8px;&quot;&gt;&lt;/div&gt;" style="text;html=1;align=center;verticalAlign=middle;resizable=0;points=[];autosize=1;strokeColor=none;fillColor=none;fontStyle=1;fontSize=8;rotation=0;fontFamily=Lucida Console;" parent="1" vertex="1">
          <mxGeometry x="220" y="340" width="130" height="30" as="geometry" />
        </mxCell>
        <mxCell id="CL0RsHsE28LmDnfpR1Rt-15" value="" style="edgeStyle=orthogonalEdgeStyle;rounded=0;orthogonalLoop=1;jettySize=auto;html=1;" parent="1" source="CL0RsHsE28LmDnfpR1Rt-17" target="CL0RsHsE28LmDnfpR1Rt-13" edge="1">
          <mxGeometry relative="1" as="geometry" />
        </mxCell>
        <mxCell id="oYO8-mp5mdlt6fK4pOg7-6" style="edgeStyle=orthogonalEdgeStyle;rounded=0;orthogonalLoop=1;jettySize=auto;html=1;exitX=1;exitY=1;exitDx=0;exitDy=0;" parent="1" source="CL0RsHsE28LmDnfpR1Rt-17" edge="1">
          <mxGeometry relative="1" as="geometry">
            <mxPoint x="439.2758620689656" y="360.2413793103449" as="targetPoint" />
          </mxGeometry>
        </mxCell>
        <mxCell id="oYO8-mp5mdlt6fK4pOg7-8" style="edgeStyle=orthogonalEdgeStyle;rounded=0;orthogonalLoop=1;jettySize=auto;html=1;exitX=0.5;exitY=0;exitDx=0;exitDy=0;entryX=1;entryY=0.5;entryDx=0;entryDy=0;" parent="1" source="CL0RsHsE28LmDnfpR1Rt-17" target="CL0RsHsE28LmDnfpR1Rt-8" edge="1">
          <mxGeometry relative="1" as="geometry">
            <Array as="points">
              <mxPoint x="414" y="275" />
            </Array>
          </mxGeometry>
        </mxCell>
        <mxCell id="oYO8-mp5mdlt6fK4pOg7-9" style="edgeStyle=orthogonalEdgeStyle;rounded=0;orthogonalLoop=1;jettySize=auto;html=1;exitX=0.5;exitY=1;exitDx=0;exitDy=0;entryX=0.5;entryY=0;entryDx=0;entryDy=0;" parent="1" source="CL0RsHsE28LmDnfpR1Rt-17" target="oYO8-mp5mdlt6fK4pOg7-5" edge="1">
          <mxGeometry relative="1" as="geometry">
            <mxPoint x="413.7586206896551" y="530" as="targetPoint" />
          </mxGeometry>
        </mxCell>
        <mxCell id="CL0RsHsE28LmDnfpR1Rt-17" value="EXIBIR RESULTADO" style="rhombus;whiteSpace=wrap;html=1;fontStyle=1;fontFamily=Lucida Console;" parent="1" vertex="1">
          <mxGeometry x="364" y="285" width="100" height="100" as="geometry" />
        </mxCell>
        <mxCell id="oYO8-mp5mdlt6fK4pOg7-2" style="edgeStyle=orthogonalEdgeStyle;rounded=0;orthogonalLoop=1;jettySize=auto;html=1;entryX=0.5;entryY=0;entryDx=0;entryDy=0;" parent="1" source="oYO8-mp5mdlt6fK4pOg7-1" target="CL0RsHsE28LmDnfpR1Rt-4" edge="1">
          <mxGeometry relative="1" as="geometry" />
        </mxCell>
        <mxCell id="oYO8-mp5mdlt6fK4pOg7-1" value="" style="ellipse;whiteSpace=wrap;html=1;fillColor=#60a917;strokeColor=#2D7600;fontColor=#ffffff;" parent="1" vertex="1">
          <mxGeometry x="155" width="30" height="30" as="geometry" />
        </mxCell>
        <mxCell id="oYO8-mp5mdlt6fK4pOg7-3" value="Informe a frente e &lt;br&gt;lateral do terreno" style="text;html=1;align=center;verticalAlign=middle;resizable=0;points=[];autosize=1;strokeColor=none;fillColor=none;" parent="1" vertex="1">
          <mxGeometry x="170" y="43" width="120" height="40" as="geometry" />
        </mxCell>
        <mxCell id="oYO8-mp5mdlt6fK4pOg7-11" style="edgeStyle=orthogonalEdgeStyle;rounded=0;orthogonalLoop=1;jettySize=auto;html=1;exitX=0;exitY=0.5;exitDx=0;exitDy=0;entryX=0.5;entryY=1;entryDx=0;entryDy=0;" parent="1" source="oYO8-mp5mdlt6fK4pOg7-5" target="CL0RsHsE28LmDnfpR1Rt-10" edge="1">
          <mxGeometry relative="1" as="geometry" />
        </mxCell>
        <mxCell id="oYO8-mp5mdlt6fK4pOg7-5" value="Exiba &quot;#terrenogrande”" style="whiteSpace=wrap;html=1;rounded=1;fillColor=#e6d0de;gradientColor=#d5739d;strokeColor=#996185;fontFamily=Lucida Console;fontStyle=1" parent="1" vertex="1">
          <mxGeometry x="314" y="550" width="200" height="90" as="geometry" />
        </mxCell>
        <mxCell id="oYO8-mp5mdlt6fK4pOg7-10" value="&lt;div style=&quot;direction: rtl; font-size: 8px;&quot;&gt;&lt;font style=&quot;font-size: 8px;&quot;&gt;Se a área for&amp;nbsp;&lt;/font&gt;&lt;/div&gt;&lt;div style=&quot;direction: rtl; font-size: 8px;&quot;&gt;&lt;font style=&quot;font-size: 8px;&quot;&gt;maior que 250&lt;/font&gt;&lt;/div&gt;" style="text;html=1;align=center;verticalAlign=middle;resizable=0;points=[];autosize=1;strokeColor=none;fillColor=none;fontStyle=1;fontSize=8;rotation=90;fontFamily=Lucida Console;" parent="1" vertex="1">
          <mxGeometry x="380" y="450" width="110" height="30" as="geometry" />
        </mxCell>
      </root>
    </mxGraphModel>
  </diagram>
</mxfile>
